<svg width="201" height="245" fill="none" xmlns="http://www.w3.org/2000/svg"><path fill="#2C6269" d="M100.195 144.909h-100v-100h100z"/><path fill-rule="evenodd" clip-rule="evenodd" d="M100.195 244.909c55.228 0 100-44.771 100-100 0-55.228-44.772-100-100-100-55.229 0-100 44.772-100 100 0 55.229 44.771 100 100 100Zm0-67c18.225 0 33-14.774 33-33 0-18.225-14.775-33-33-33-18.226 0-33 14.775-33 33 0 18.226 14.774 33 33 33Z" fill="#004047"/><path fill-rule="evenodd" clip-rule="evenodd" d="M100.195 100.909h-100v4h100v-4Zm0 8h-100v4h100v-4Zm-100 8h100v4h-100v-4Zm100 8h-100v4h100v-4Zm-100 8h100v4h-100v-4Zm100 8h-100v4h100v-4Z" fill="#F67E7E"/><path fill-rule="evenodd" clip-rule="evenodd" d="M.195.91h4v4h-4v-4Zm11 0h-4v4h4v-4Zm0 8h-4v4h4v-4Zm-4 8h4v4h-4v-4Zm4 8h-4v4h4v-4Zm-4 8h4v4h-4v-4Zm4 8h-4v4h4v-4Zm3-40h4v4h-4v-4Zm0 8h4v4h-4v-4Zm4 8h-4v4h4v-4Zm-4 8h4v4h-4v-4Zm4 8h-4v4h4v-4Zm-4 8h4v4h-4v-4Zm-14-32h4v4h-4v-4Zm21-8h4v4h-4v-4Zm0 8h4v4h-4v-4Zm4 8h-4v4h4v-4Zm-4 8h4v4h-4v-4Zm4 8h-4v4h4v-4Zm-4 8h4v4h-4v-4Zm-21-24h4v4h-4v-4Zm28-16h4v4h-4v-4Zm0 8h4v4h-4v-4Zm4 8h-4v4h4v-4Zm-4 8h4v4h-4v-4Zm4 8h-4v4h4v-4Zm-4 8h4v4h-4v-4Zm-28-16h4v4h-4v-4Zm35-24h4v4h-4v-4Zm0 8h4v4h-4v-4Zm4 8h-4v4h4v-4Zm-4 8h4v4h-4v-4Zm4 8h-4v4h4v-4Zm-4 8h4v4h-4v-4Zm-35-8h4v4h-4v-4Zm42-32h4v4h-4v-4Zm0 8h4v4h-4v-4Zm4 8h-4v4h4v-4Zm-4 8h4v4h-4v-4Zm4 8h-4v4h4v-4Zm-4 8h4v4h-4v-4Zm-42 0h4v4h-4v-4Zm49-40h4v4h-4v-4Zm0 8h4v4h-4v-4Zm4 8h-4v4h4v-4Zm-4 8h4v4h-4v-4Zm4 8h-4v4h4v-4Zm-4 8h4v4h-4v-4Z" fill="#79C8C7"/></svg>